PathFileType  4	(X/Y/Z) C:\Users\antoi\Documents\MyRepositories\mobilecap\ResultsAnalysis
DataRate	CameraRate	NumFrames	NumMarkers	Units	OrigDataRate	OrigDataStartFrame	OrigNumFrames
100.0	100.0	4	51	mm	100.0	670	1338
Frame#	Time	r_knee			r_shank_antsup			r_ankle			r_calc			r_5meta			r_toe			L_knee			L_shank_antsup			L_ankle			L_calc			L_5meta			L_toe			r_sh2			r_sh3			r_sh4			L_sh2			L_sh3			r_thigh1			r_thigh2			r_thigh3			r_thigh4			r_thigh5			L_thigh1			L_thigh2			L_thigh3			L_thigh4			r.ASIS			r.PSIS			L.ASIS			L.PSIS			C7			R_Shoulder			L_Shoulder			R_Sternum			L_Sternum			R_humerus			R_elbow_med			R_elbow_lat			R_forearm			R_wrist_radius			R_wrist_ulna			L_humerus			L_elbow_med			L_elbow_lat			L_forearm			L_wrist_radius			L_wrist_ulna			R_HJC			L_HJC			R_HJC_reg			L_HJC_reg			
		X1	Y1	Z1	X2	Y2	Z2	X3	Y3	Z3	X4	Y4	Z4	X5	Y5	Z5	X6	Y6	Z6	X7	Y7	Z7	X8	Y8	Z8	X9	Y9	Z9	X10	Y10	Z10	X11	Y11	Z11	X12	Y12	Z12	X13	Y13	Z13	X14	Y14	Z14	X15	Y15	Z15	X16	Y16	Z16	X17	Y17	Z17	X18	Y18	Z18	X19	Y19	Z19	X20	Y20	Z20	X21	Y21	Z21	X22	Y22	Z22	X23	Y23	Z23	X24	Y24	Z24	X25	Y25	Z25	X26	Y26	Z26	X27	Y27	Z27	X28	Y28	Z28	X29	Y29	Z29	X30	Y30	Z30	X31	Y31	Z31	X32	Y32	Z32	X33	Y33	Z33	X34	Y34	Z34	X35	Y35	Z35	X36	Y36	Z36	X37	Y37	Z37	X38	Y38	Z38	X39	Y39	Z39	X40	Y40	Z40	X41	Y41	Z41	X42	Y42	Z42	X43	Y43	Z43	X44	Y44	Z44	X45	Y45	Z45	X46	Y46	Z46	X47	Y47	Z47	X48	Y48	Z48	X49	Y49	Z49	X50	Y50	Z50	X51	Y51	Z51	

670	6.69000000	-160.83708	469.24454	-370.20283	-117.91015	375.10237	-378.68736	-277.27874	88.73043	-390.55301	-336.73429	55.27062	-442.73261	-162.60773	47.78660	-343.26257	-127.89120	79.09790	-393.71012	-188.84669	489.04761	-782.00548	-133.39649	405.58376	-784.95313	-263.34377	98.18536	-796.15953	-330.47690	51.20094	-742.14904	-162.46916	40.78874	-844.88951	-111.65585	68.00647	-795.33362	-155.58047	267.80632	-383.22143	-179.16973	392.44082	-338.42183	-221.83259	286.86051	-337.75216	-212.53814	439.01661	-813.19912	-244.86411	322.01458	-827.49626	-369.26607	642.65315	-345.60944	-273.19145	597.77967	-367.11122	-268.50498	537.49283	-332.11969	-414.82856	540.57667	-326.96803	-307.49634	496.95506	-345.46697	-357.29185	662.73386	-729.92379	-230.09112	607.27588	-740.25260	-404.29598	578.99412	-781.63994	-283.30350	519.85283	-779.09320	-357.13011	649.55218	-413.77957	-497.11548	783.56622	-482.30988	-369.77071	672.95640	-667.40277	-497.24154	787.79073	-574.08994	-66.91381	995.79672	-487.19132	-13.86487	883.92747	-354.97856	-23.36454	905.97499	-630.90969	-43.41109	845.99025	-482.09648	-45.78469	852.31501	-521.15805	49.08224	796.34665	-322.47192	82.17550	581.96448	-331.12608	113.87203	610.13377	-266.37745	144.02926	688.35407	-316.91739	136.95634	782.80026	-451.08570	182.51394	785.10582	-427.97325	33.33086	816.79847	-692.78767	52.03195	612.78038	-706.35576	87.80272	659.79522	-774.73060	111.98300	721.96366	-734.20980	127.10640	815.51223	-598.71636	172.85517	814.84393	-626.50194	-468.34647	618.83668	-439.11296	-473.75118	634.01154	-627.98934	-462.33891	629.97176	-450.34333	-462.56994	637.71056	-618.47498	
671	6.70000000	-160.94922	468.93830	-370.08737	-117.88398	375.07781	-378.66649	-277.29340	88.77704	-390.56038	-336.74248	55.26913	-442.69756	-162.60734	47.77004	-343.26555	-127.87932	79.05894	-393.72851	-188.81595	489.02759	-781.72082	-133.40738	405.63089	-784.78572	-263.34762	98.17392	-796.13531	-330.47289	51.18074	-742.15546	-162.45535	40.77127	-844.87807	-111.65910	68.00604	-795.32443	-155.57044	267.78954	-383.21937	-179.14951	392.41952	-338.33529	-221.90446	286.78326	-337.71535	-212.49943	439.02531	-812.82325	-244.86036	321.91695	-827.12628	-369.42605	642.36387	-345.40576	-273.42730	597.44687	-367.17672	-268.50039	537.34036	-331.91947	-414.81290	540.24804	-326.93640	-307.51381	496.83365	-345.30311	-357.52929	662.44600	-729.51479	-230.15641	607.17841	-739.91026	-404.36048	578.72828	-781.51055	-283.34688	519.65903	-778.69626	-357.33243	649.35687	-413.83247	-497.15147	783.20388	-482.38884	-369.82968	672.13690	-666.07496	-497.29088	787.38609	-574.08497	-66.63703	994.73707	-487.33233	-13.60759	882.97678	-355.23964	-22.94892	904.88485	-631.17618	-43.39988	844.90444	-482.42747	-45.65721	851.25778	-521.39464	49.28817	795.18020	-322.91078	81.84418	580.90928	-331.82935	113.77060	608.86921	-266.95302	144.05794	687.14060	-317.40637	136.91596	781.62472	-451.54200	182.50479	783.89136	-428.40162	33.20711	815.39506	-693.05460	51.86333	611.22432	-706.43375	87.46969	658.17739	-774.72150	111.72294	720.32016	-734.15428	126.65679	814.10796	-598.97504	172.41647	813.38549	-626.67571	-468.60705	618.66876	-438.57829	-473.80264	633.35107	-627.49940	-462.16123	629.84472	-450.13788	-462.41551	637.46992	-617.32515	
672	6.71000000	-161.02374	469.02860	-370.09001	-117.88722	375.04756	-378.61526	-277.32453	88.81938	-390.54934	-336.75648	55.29058	-442.66322	-162.59729	47.78100	-343.27035	-127.88938	79.05587	-393.74261	-188.76626	489.01027	-781.48995	-133.38088	405.59203	-784.38065	-263.34899	98.16631	-796.12946	-330.47172	51.14984	-742.16579	-162.45306	40.81449	-844.95114	-111.64584	67.98410	-795.28075	-155.55834	267.78124	-383.21127	-179.18871	392.45697	-338.18736	-222.21542	286.54154	-337.75020	-212.45284	438.94143	-812.37925	-244.84068	321.83478	-826.71396	-369.55512	642.15865	-345.20010	-273.51844	597.08832	-367.18057	-268.48028	537.27690	-331.80806	-414.76727	540.11952	-326.71485	-307.49501	496.69406	-345.20171	-357.66943	662.20619	-729.20448	-230.20534	607.07400	-739.45943	-404.36718	578.46292	-781.34816	-283.34983	519.45096	-778.34570	-357.44650	649.17101	-413.74840	-497.20159	782.86906	-482.33744	-369.95558	671.59757	-665.34879	-497.30829	786.87621	-573.95520	-67.23385	993.70944	-487.05921	-13.42755	882.14597	-355.68423	-23.04809	903.78566	-631.68884	-43.40177	844.00421	-482.72695	-45.45564	850.43319	-521.45489	49.43423	794.20033	-323.30397	81.59879	580.07296	-332.48981	113.68279	607.89569	-267.47980	144.09767	686.21183	-317.82121	136.92164	780.61577	-452.01764	182.48041	782.90390	-428.84802	33.17519	814.11489	-693.21817	51.35606	610.00688	-706.35915	87.12596	656.79901	-774.81182	111.39918	719.07813	-734.50816	126.20158	812.95611	-599.16081	172.04194	812.09816	-626.84261	-468.70622	618.42555	-438.17580	-473.85845	632.81270	-627.12150	-462.15708	629.79661	-449.92549	-462.35127	637.08957	-616.68451	
673	6.72000000	-161.03369	469.01027	-370.06472	-117.90375	374.99888	-378.54543	-277.33357	88.79541	-390.49676	-336.76496	55.30493	-442.65549	-162.60152	47.78415	-343.27168	-127.89807	79.06378	-393.74465	-188.71825	489.02330	-781.35468	-133.30692	405.46968	-783.83154	-263.34380	98.15700	-796.12137	-330.47100	51.11608	-742.18188	-162.45348	40.79203	-844.91956	-111.64450	67.97418	-795.27232	-155.55897	267.77444	-383.18186	-179.31495	392.53637	-337.98181	-222.43359	286.42487	-337.75884	-212.38469	438.84584	-811.96627	-244.79294	321.82208	-826.47026	-369.59742	642.14591	-344.93808	-273.88438	596.74492	-366.84779	-268.44758	537.25379	-331.72841	-414.74358	540.09911	-326.32345	-307.43963	496.56108	-345.07887	-357.70299	662.00940	-728.99591	-230.23494	606.97247	-739.11276	-404.32947	578.19866	-781.06983	-283.32714	519.24841	-778.01134	-357.45419	648.91286	-413.65183	-497.22832	782.58564	-482.09062	-370.13001	671.45048	-665.44765	-497.30452	786.39739	-573.75992	-67.51722	992.94705	-487.22360	-13.22800	881.52378	-356.14689	-23.32283	902.77631	-632.29777	-43.36956	843.30746	-483.05553	-45.36928	849.74773	-521.69716	49.52872	793.45393	-323.69431	81.41530	579.45313	-333.05276	113.60458	607.19550	-267.90696	144.10520	685.45244	-318.19104	136.93477	779.84133	-452.49769	182.46223	782.15776	-429.22042	33.14807	813.00386	-693.44730	50.85167	609.09543	-706.46923	86.81212	655.74411	-774.98512	111.01421	718.11492	-734.97170	125.74266	811.99549	-599.31942	171.69254	810.99588	-626.93430	-468.63770	618.08021	-438.07644	-473.94715	632.53960	-627.01213	-462.30300	629.74871	-449.82516	-462.44175	636.68912	-616.74002	
